<svg xmlns="http://www.w3.org/2000/svg" xmlns:xlink="http://www.w3.org/1999/xlink" width="500" zoomAndPan="magnify" viewBox="0 0 375 149.999998" height="200" preserveAspectRatio="xMidYMid meet" version="1.0"><defs><g/><clipPath id="1c62a3cee3"><path d="M 39 33 L 304 33 L 304 79.691406 L 39 79.691406 Z M 39 33 " clip-rule="nonzero"/></clipPath></defs><path fill="#ff0000" d="M 193.664062 21.507812 L 198.328125 18.082031 L 202.992188 21.507812 L 201.171875 16.027344 L 205.835938 12.601562 L 200.089844 12.65625 L 198.328125 7.117188 L 196.5625 12.65625 L 190.820312 12.601562 L 195.484375 16.027344 Z M 193.664062 21.507812 " fill-opacity="1" fill-rule="evenodd"/><path fill="#ff0000" d="M 164.996094 19.679688 L 171.367188 15.054688 L 177.792969 19.679688 L 175.289062 12.144531 L 181.71875 7.519531 L 173.8125 7.519531 L 171.367188 -0.0195312 L 168.976562 7.519531 L 161.070312 7.519531 L 167.441406 12.144531 Z M 164.996094 19.679688 " fill-opacity="1" fill-rule="evenodd"/><path fill="#ff0000" d="M 218.292969 23.449219 L 221.59375 20.992188 L 224.835938 23.449219 L 223.640625 19.566406 L 226.824219 17.226562 L 222.785156 17.226562 L 221.59375 13.34375 L 220.339844 17.226562 L 216.359375 17.226562 L 219.601562 19.566406 Z M 218.292969 23.449219 " fill-opacity="1" fill-rule="evenodd"/><path fill="#ff0000" d="M 139.796875 21.507812 L 144.460938 18.082031 L 149.066406 21.507812 L 147.304688 16.027344 L 151.96875 12.601562 L 146.167969 12.65625 L 144.460938 7.117188 L 142.695312 12.65625 L 136.894531 12.601562 L 141.558594 16.027344 Z M 139.796875 21.507812 " fill-opacity="1" fill-rule="evenodd"/><path fill="#ff0000" d="M 117.894531 23.449219 L 121.195312 20.992188 L 124.378906 23.449219 L 123.128906 19.566406 L 126.429688 17.226562 L 122.390625 17.226562 L 121.195312 13.34375 L 119.945312 17.226562 L 115.90625 17.226562 L 119.148438 19.566406 Z M 117.894531 23.449219 " fill-opacity="1" fill-rule="evenodd"/><g clip-path="url(#1c62a3cee3)"><path fill="#ff0000" d="M 297.074219 57.421875 C 281.148438 61.304688 271.195312 58.675781 265.621094 57.820312 C 224.605469 34.46875 184.390625 19.851562 134.222656 54.566406 L 134.050781 54.566406 C 107.769531 48.398438 68.464844 47.371094 42.242188 63.132812 C 38.148438 65.53125 39.851562 67.925781 39.96875 68.097656 L 47.644531 79.632812 C 46.453125 75.40625 44.859375 71.980469 45.429688 69.925781 C 45.542969 69.699219 45.65625 69.296875 46.054688 69.011719 C 67.382812 53.882812 111.808594 54.566406 134.164062 59.707031 C 181.886719 70.78125 194.800781 68.210938 194.800781 68.210938 C 194.800781 68.210938 188.089844 69.242188 142.296875 56.851562 C 176.597656 33.039062 213.628906 37.550781 249.351562 54.222656 C 263.628906 60.90625 269.375 63.074219 286.78125 67.414062 C 283.707031 65.929688 281.207031 65.242188 277.792969 63.300781 C 287.917969 63.988281 297.53125 61.359375 297.53125 61.359375 C 293.664062 73.179688 283.933594 79.691406 283.933594 79.691406 C 290.761719 76.433594 297.53125 69.640625 300.089844 65.472656 C 304.699219 58.164062 304.46875 55.652344 297.019531 57.421875 Z M 297.074219 57.421875 " fill-opacity="1" fill-rule="evenodd"/></g><g fill="#000000" fill-opacity="1"><g transform="translate(3.900323, 131.763175)"><g><path d="M 3.25 -44.75 L 19.25 -44.75 C 23.550781 -44.75 27.054688 -43.597656 29.765625 -41.296875 C 32.484375 -39.003906 33.84375 -35.722656 33.84375 -31.453125 C 33.84375 -28.160156 33.019531 -25.398438 31.375 -23.171875 C 29.726562 -20.953125 27.492188 -19.394531 24.671875 -18.5 L 40.078125 0 L 27.109375 0 L 13.453125 -17.6875 L 13.453125 0 L 3.25 0 Z M 13.453125 -24.890625 L 14.640625 -24.890625 C 15.578125 -24.890625 16.367188 -24.90625 17.015625 -24.9375 C 17.671875 -24.976562 18.414062 -25.109375 19.25 -25.328125 C 20.082031 -25.546875 20.75 -25.851562 21.25 -26.25 C 21.757812 -26.644531 22.195312 -27.222656 22.5625 -27.984375 C 22.925781 -28.742188 23.109375 -29.664062 23.109375 -30.75 C 23.109375 -31.832031 22.925781 -32.753906 22.5625 -33.515625 C 22.195312 -34.273438 21.757812 -34.851562 21.25 -35.25 C 20.75 -35.644531 20.082031 -35.953125 19.25 -36.171875 C 18.414062 -36.390625 17.671875 -36.515625 17.015625 -36.546875 C 16.367188 -36.585938 15.578125 -36.609375 14.640625 -36.609375 L 13.453125 -36.609375 Z M 13.453125 -24.890625 "/></g></g></g><g fill="#000000" fill-opacity="1"><g transform="translate(42.732269, 131.763175)"><g><path d="M 28.859375 -44.75 L 28.859375 -35.796875 L 13.453125 -35.796875 L 13.453125 -26.90625 L 28.203125 -26.90625 L 28.203125 -17.953125 L 13.453125 -17.953125 L 13.453125 -8.953125 L 28.859375 -8.953125 L 28.859375 0 L 3.25 0 L 3.25 -44.75 Z M 28.859375 -44.75 "/></g></g></g><g fill="#000000" fill-opacity="1"><g transform="translate(74.188321, 131.763175)"><g><path d="M 13.453125 -27.765625 L 13.453125 0 L 3.25 0 L 3.25 -44.75 L 13.453125 -44.75 L 31.234375 -16.96875 L 31.34375 -16.96875 L 31.34375 -44.75 L 41.546875 -44.75 L 41.546875 0 L 31.34375 0 L 13.5625 -27.765625 Z M 13.453125 -27.765625 "/></g></g></g><g fill="#000000" fill-opacity="1"><g transform="translate(118.986068, 131.763175)"><g><path d="M 0.4375 -35.796875 L 0.4375 -44.75 L 31.890625 -44.75 L 31.890625 -35.796875 L 21.265625 -35.796875 L 21.265625 0 L 11.0625 0 L 11.0625 -35.796875 Z M 0.4375 -35.796875 "/></g></g></g><g fill="#000000" fill-opacity="1"><g transform="translate(151.309874, 131.763175)"><g><path d="M 3.25 -19.84375 L 20.71875 -19.84375 L 20.71875 -11.546875 L 3.25 -11.546875 Z M 3.25 -19.84375 "/></g></g></g><g fill="#000000" fill-opacity="1"><g transform="translate(175.281547, 131.763175)"><g><path d="M 13.453125 -27.765625 L 13.453125 0 L 3.25 0 L 3.25 -44.75 L 13.453125 -44.75 L 31.234375 -16.96875 L 31.34375 -16.96875 L 31.34375 -44.75 L 41.546875 -44.75 L 41.546875 0 L 31.34375 0 L 13.5625 -27.765625 Z M 13.453125 -27.765625 "/></g></g></g><g fill="#000000" fill-opacity="1"><g transform="translate(220.079294, 131.763175)"><g><path d="M 3.25 -19.84375 L 20.71875 -19.84375 L 20.71875 -11.546875 L 3.25 -11.546875 Z M 3.25 -19.84375 "/></g></g></g><g fill="#000000" fill-opacity="1"><g transform="translate(244.050967, 131.763175)"><g><path d="M 3.25 -44.75 L 19.25 -44.75 C 23.550781 -44.75 27.054688 -43.597656 29.765625 -41.296875 C 32.484375 -39.003906 33.84375 -35.722656 33.84375 -31.453125 C 33.84375 -28.160156 33.019531 -25.398438 31.375 -23.171875 C 29.726562 -20.953125 27.492188 -19.394531 24.671875 -18.5 L 40.078125 0 L 27.109375 0 L 13.453125 -17.6875 L 13.453125 0 L 3.25 0 Z M 13.453125 -24.890625 L 14.640625 -24.890625 C 15.578125 -24.890625 16.367188 -24.90625 17.015625 -24.9375 C 17.671875 -24.976562 18.414062 -25.109375 19.25 -25.328125 C 20.082031 -25.546875 20.75 -25.851562 21.25 -26.25 C 21.757812 -26.644531 22.195312 -27.222656 22.5625 -27.984375 C 22.925781 -28.742188 23.109375 -29.664062 23.109375 -30.75 C 23.109375 -31.832031 22.925781 -32.753906 22.5625 -33.515625 C 22.195312 -34.273438 21.757812 -34.851562 21.25 -35.25 C 20.75 -35.644531 20.082031 -35.953125 19.25 -36.171875 C 18.414062 -36.390625 17.671875 -36.515625 17.015625 -36.546875 C 16.367188 -36.585938 15.578125 -36.609375 14.640625 -36.609375 L 13.453125 -36.609375 Z M 13.453125 -24.890625 "/></g></g></g><g fill="#000000" fill-opacity="1"><g transform="translate(282.882898, 131.763175)"><g><path d="M 13.453125 -44.75 L 13.453125 0 L 3.25 0 L 3.25 -44.75 Z M 13.453125 -44.75 "/></g></g></g><g fill="#000000" fill-opacity="1"><g transform="translate(299.587164, 131.763175)"><g><path d="M 3.25 -44.75 L 16.21875 -44.75 C 22.4375 -44.75 27.75 -42.625 32.15625 -38.375 C 36.570312 -34.125 38.78125 -28.800781 38.78125 -22.40625 C 38.78125 -15.96875 36.582031 -10.625 32.1875 -6.375 C 27.789062 -2.125 22.46875 0 16.21875 0 L 3.25 0 Z M 13.453125 -9.109375 L 15.015625 -9.109375 C 18.742188 -9.109375 21.789062 -10.363281 24.15625 -12.875 C 26.53125 -15.394531 27.734375 -18.550781 27.765625 -22.34375 C 27.765625 -26.144531 26.578125 -29.304688 24.203125 -31.828125 C 21.835938 -34.359375 18.773438 -35.625 15.015625 -35.625 L 13.453125 -35.625 Z M 13.453125 -9.109375 "/></g></g></g><g fill="#000000" fill-opacity="1"><g transform="translate(339.612292, 131.763175)"><g><path d="M 28.859375 -44.75 L 28.859375 -35.796875 L 13.453125 -35.796875 L 13.453125 -26.90625 L 28.203125 -26.90625 L 28.203125 -17.953125 L 13.453125 -17.953125 L 13.453125 -8.953125 L 28.859375 -8.953125 L 28.859375 0 L 3.25 0 L 3.25 -44.75 Z M 28.859375 -44.75 "/></g></g></g></svg>